<svg viewBox="0 0 73 57" fill="none" xmlns="http://www.w3.org/2000/svg">
<path d="M68.25 0.125C70.5 0 72.5 1.75 72.375 3.875V46.125C72.375 48.125 70.75 49.875 68.625 50C62.5 50.25 50 51.5 41.375 55.875C40 56.5 38.375 55.625 38.375 54.125V8.625C38.375 8 38.75 7.375 39.375 7C47.75 1.875 61.375 0.5 68.25 0.125ZM33.5 7C34.125 7.375 34.5 8 34.5 8.625V54.125C34.5 55.625 32.875 56.5 31.5 55.875C22.875 51.5 10.375 50.25 4.25 50C2.125 49.875 0.5 48.125 0.5 46.125V3.875C0.5 1.75 2.375 0 4.625 0.125C11.5 0.5 25.125 1.875 33.5 7Z" fill="#EBB100"/>
</svg>
