<svg width="74" height="66" viewBox="0 0 74 66" fill="none" xmlns="http://www.w3.org/2000/svg">
<path d="M69.75 2.25C72.125 7.625 73.5 14.125 73.5 20.375C73.5 41.875 59.625 59.5 40 60.875C29.875 62 22.25 56.75 18.125 51.25C11.75 56.625 9.375 62.125 9.125 62.625C8.25 64.625 6 65.625 3.875 64.75C1.875 63.875 0.875 61.625 1.75 59.5C4.75 52.375 18 33 49.5 33C50.5 33 51.5 32.125 51.5 31C51.5 30 50.5 29 49.5 29C33.125 29 21.625 33.875 13.625 39.625C13.5 38.75 13.5 37.875 13.5 37C13.5 23.75 24.25 13 37.5 13H47.5C55.375 13 62.25 8.875 66.125 2.125C67 0.625 69 0.75 69.75 2.25Z" fill="#EBCD00"/>
</svg>
