<svg width="60" height="32" viewBox="0 0 60 32" fill="none" xmlns="http://www.w3.org/2000/svg">
<g clip-path="url(#clip0_2_565)">
<path fill-rule="evenodd" clip-rule="evenodd" d="M26.7 -0.0999902C26.4162 0.0902098 26.083 0.15681 25.7 0.10001C25.7134 0.39181 25.6468 0.65841 25.5 0.90001C21.273 5.69481 17.073 10.5282 12.9 15.4C14.279 16.8126 15.679 18.1794 17.1 19.5C17.1078 19.7166 17.1746 19.9166 17.3 20.1C18.4484 21.2498 19.6484 22.3166 20.9 23.3C22.8346 25.1678 24.7678 27.0346 26.7 28.9C25.1698 29.0702 23.6366 29.2036 22.1 29.3C21.2312 29.3004 20.4312 29.1004 19.7 28.7C19.3 27.9 18.7 27.3 17.9 26.9C14.3796 23.6798 10.9462 20.3466 7.60001 16.9C7.50001 20.9662 7.46661 25.0328 7.50001 29.1C5.96661 29.1 4.43341 29.1 2.90001 29.1C2.50241 19.5436 2.36921 9.94361 2.50001 0.30001C4.10001 0.30001 5.70001 0.30001 7.30001 0.30001C7.23381 4.66801 7.30061 9.00121 7.50001 13.3C7.47021 13.5104 7.50341 13.7104 7.60001 13.9C11.708 9.32581 15.7412 4.69241 19.7 9.81241e-06C22.0324 -0.0999902 24.3658 -0.13339 26.7 -0.0999902ZM8.70001 1.70001C9.00541 1.68541 9.20541 1.81881 9.30001 2.10001C8.99461 2.11461 8.79461 1.98121 8.70001 1.70001Z" fill="#EA7206"/>
<path fill-rule="evenodd" clip-rule="evenodd" d="M26.7 -0.100006C28.1726 -0.166206 29.6394 -0.0994062 31.1 0.0999938C34 6.56659 36.9 13.0334 39.8 19.5C42.7848 13.0632 45.7182 6.59659 48.6 0.0999938C50.488 -0.163406 52.388 -0.163406 54.3 0.0999938C49.8334 9.83339 45.3666 19.5666 40.9 29.3C40.2592 29.4408 39.6258 29.574 39 29.7C37.5902 26.8806 36.2902 24.0138 35.1 21.1C34.7018 19.534 34.0684 18.0674 33.2 16.7C32.7684 15.5716 32.3684 14.4384 32 13.3C31.4098 12.8536 31.0764 12.2536 31 11.5C30.862 11.2524 30.762 11.2524 30.7 11.5C29.8522 9.87059 29.0522 8.20399 28.3 6.49999C28.205 6.04319 28.005 5.64319 27.7 5.29999C27.6534 4.98759 27.52 4.72099 27.3 4.49999C27.3876 4.51299 27.4544 4.47979 27.5 4.39999C27.2562 3.94439 26.9896 3.51099 26.7 3.09999C26.5122 2.55179 26.1454 2.15179 25.6 1.89999C25.4986 1.60079 25.5986 1.36739 25.9 1.19999C25.7912 1.05659 25.6578 0.956594 25.5 0.899994C25.6468 0.658394 25.7134 0.391794 25.7 0.0999938C26.083 0.156794 26.4162 0.0901938 26.7 -0.100006Z" fill="#E9B10A"/>
<path opacity="0.01" fill-rule="evenodd" clip-rule="evenodd" d="M24.9 2.29999C24.7666 2.03339 24.7666 2.03339 24.9 2.29999V2.29999Z" fill="#FEFFFE"/>
<path fill-rule="evenodd" clip-rule="evenodd" d="M8.70001 1.70001C8.79461 1.98121 8.99461 2.11461 9.30001 2.10001C10.2168 2.89401 11.2168 3.59401 12.3 4.20001C12.4674 4.40221 12.534 4.63561 12.5 4.90001C12.1384 4.90181 11.805 4.80181 11.5 4.60001C10.5344 3.88381 9.53441 3.21701 8.50001 2.60001C8.19261 2.37801 8.05941 2.07801 8.10001 1.70001C8.30001 1.70001 8.50001 1.70001 8.70001 1.70001Z" fill="#DC8030"/>
<path fill-rule="evenodd" clip-rule="evenodd" d="M54.7 0.299988C56.1958 1.28219 57.6626 2.31559 59.1 3.39999C58.9864 3.72079 58.7864 3.85399 58.5 3.79999C57.1 2.83339 55.7 1.86659 54.3 0.899988C54.4386 0.696388 54.5718 0.496388 54.7 0.299988Z" fill="#E5B830"/>
<path opacity="0.457" fill-rule="evenodd" clip-rule="evenodd" d="M8.70002 3.29999C8.39042 3.36419 8.25702 3.56419 8.30002 3.89999C8.07742 3.61079 8.04402 3.27739 8.20002 2.89999C8.39902 3.01319 8.56562 3.14659 8.70002 3.29999Z" fill="#C98E63"/>
<path fill-rule="evenodd" clip-rule="evenodd" d="M9.29998 2.10001C9.20538 1.81881 9.00538 1.68541 8.69998 1.70001C8.45718 1.47481 8.25718 1.20821 8.09998 0.900013C8.14658 0.613613 8.27998 0.513613 8.49998 0.600013C9.79998 1.50001 11.1 2.40001 12.4 3.30001C12.5126 3.54501 12.446 3.74501 12.2 3.90001C11.306 3.17041 10.3392 2.57041 9.29998 2.10001Z" fill="#DA8234"/>
<path opacity="0.982" fill-rule="evenodd" clip-rule="evenodd" d="M24.9 2.29999C25.5214 2.51059 26.1214 2.77719 26.7 3.09999C26.9896 3.51099 27.2562 3.94439 27.5 4.39999C27.4544 4.47979 27.3876 4.51299 27.3 4.49999C26.477 4.04499 25.677 3.54499 24.9 2.99999C24.6632 2.77099 24.6632 2.53759 24.9 2.29999Z" fill="#DB7E20"/>
<path fill-rule="evenodd" clip-rule="evenodd" d="M54.1 1.29999C55.3998 2.16219 56.733 2.99559 58.1 3.79999C58.5696 4.13759 58.603 4.50439 58.2 4.89999C56.6598 3.98319 55.2264 2.94979 53.9 1.79999C53.9486 1.61959 54.0154 1.45299 54.1 1.29999Z" fill="#E5B92C"/>
<path fill-rule="evenodd" clip-rule="evenodd" d="M27.7 5.30001C28.005 5.64321 28.205 6.04321 28.3 6.50001C26.8474 5.68401 25.414 4.81721 24 3.90001C23.8434 3.53621 23.9434 3.26961 24.3 3.10001C25.405 3.88521 26.5382 4.61861 27.7 5.30001Z" fill="#DF7D24"/>
<path fill-rule="evenodd" clip-rule="evenodd" d="M34.5 4.29999C33.9712 3.80619 33.4046 3.33959 32.8 2.89999C32.5198 2.57079 32.4864 2.23739 32.7 1.89999C33.9158 2.79119 35.1492 3.65799 36.4 4.49999C36.6374 4.80879 36.704 5.14219 36.6 5.49999C35.9378 5.01939 35.2378 4.61939 34.5 4.29999Z" fill="#E8BD3B"/>
<path fill-rule="evenodd" clip-rule="evenodd" d="M53.5 2.5C54.9192 3.2826 56.3192 4.116 57.7 5C58.262 5.6094 58.1286 5.876 57.3 5.8C55.994 4.8608 54.6606 3.9608 53.3 3.1C53.4254 2.9166 53.4922 2.7166 53.5 2.5Z" fill="#E7BA2D"/>
<path fill-rule="evenodd" clip-rule="evenodd" d="M8.69998 3.29999C9.82778 3.99779 10.961 4.69779 12.1 5.39999C12.503 5.71099 12.5696 6.07779 12.3 6.49999C10.961 5.63119 9.62758 4.76459 8.29998 3.89999C8.25698 3.56419 8.39038 3.36419 8.69998 3.29999Z" fill="#DC7E2D"/>
<path fill-rule="evenodd" clip-rule="evenodd" d="M53.1 3.5C54.4598 4.481 55.8598 5.4142 57.3 6.3C57.5078 7.0984 57.241 7.265 56.5 6.8C55.3666 6.0334 54.2334 5.2666 53.1 4.5C52.8668 4.1666 52.8668 3.8332 53.1 3.5Z" fill="#E4B72B"/>
<path fill-rule="evenodd" clip-rule="evenodd" d="M8.10002 4.5C9.51922 5.2826 10.9192 6.116 12.3 7C12.6132 7.5354 12.48 7.802 11.9 7.8C10.8008 7.0168 9.66742 6.2836 8.50002 5.6C8.16902 5.3112 8.03562 4.9444 8.10002 4.5Z" fill="#DE8028"/>
<path fill-rule="evenodd" clip-rule="evenodd" d="M34.5 4.30001C35.2308 5.10381 36.0976 5.77041 37.1 6.30001C37.3564 6.63581 37.5564 7.00261 37.7 7.40001C37.5 7.53341 37.3 7.53341 37.1 7.40001C36.1544 6.65481 35.1544 5.98821 34.1 5.40001C33.1594 4.45381 33.2928 4.08721 34.5 4.30001Z" fill="#E7BC38"/>
<path fill-rule="evenodd" clip-rule="evenodd" d="M52.5 4.70001C53.8558 5.47901 55.189 6.31221 56.5 7.20001C56.9696 7.53761 57.003 7.90441 56.6 8.30001C55.1068 7.37141 53.6734 6.37141 52.3 5.30001C52.4254 5.11661 52.4922 4.91661 52.5 4.70001Z" fill="#E7B728"/>
<path fill-rule="evenodd" clip-rule="evenodd" d="M23.3 4.10001C24.864 4.91561 26.3306 5.88221 27.7 7.00001C27.6474 7.38921 27.4474 7.52241 27.1 7.40001C25.6906 6.56321 24.3574 5.62981 23.1 4.60001C23.1486 4.41961 23.2154 4.25301 23.3 4.10001Z" fill="#DC7D26"/>
<path fill-rule="evenodd" clip-rule="evenodd" d="M22.3 5.1C22.6616 5.0982 22.995 5.1982 23.3 5.4C24.3992 6.1832 25.5326 6.9164 26.7 7.6C27.0132 8.1354 26.88 8.402 26.3 8.4C24.9344 7.417 23.5344 6.4838 22.1 5.6C22.2504 5.4658 22.3172 5.2992 22.3 5.1Z" fill="#DC7D28"/>
<path fill-rule="evenodd" clip-rule="evenodd" d="M21.7 5.89999C23.0032 6.76759 24.3366 7.60099 25.7 8.39999C26.2574 8.78139 26.224 9.08139 25.6 9.29999C24.1188 8.44259 22.6854 7.50919 21.3 6.49999C21.4386 6.29639 21.5718 6.09639 21.7 5.89999Z" fill="#DA7C27"/>
<path fill-rule="evenodd" clip-rule="evenodd" d="M34.5 6.29999C35.7468 6.92499 36.9468 7.65819 38.1 8.49999C38.3884 8.86319 38.4884 9.26319 38.4 9.69999C37.2334 8.93339 36.0666 8.16659 34.9 7.39999C34.6278 7.08319 34.4944 6.71639 34.5 6.29999Z" fill="#E9BA32"/>
<path fill-rule="evenodd" clip-rule="evenodd" d="M8.09997 5.89999C9.25277 6.54959 10.3862 7.24959 11.5 7.99999C11.7698 8.32699 11.7364 8.62699 11.4 8.89999C10.3398 8.27279 9.30637 7.60599 8.29997 6.89999C8.10957 6.59099 8.04297 6.25759 8.09997 5.89999Z" fill="#DD7D29"/>
<path fill-rule="evenodd" clip-rule="evenodd" d="M52.1 5.89999C53.6376 6.80159 55.1044 7.80159 56.5 8.89999C56.4262 9.27799 56.2262 9.44479 55.9 9.39999C54.4648 8.44899 53.0648 7.44899 51.7 6.39999C51.8762 6.25839 52.0094 6.09159 52.1 5.89999Z" fill="#E6B631"/>
<path fill-rule="evenodd" clip-rule="evenodd" d="M51.5 6.89999C52.8696 7.83419 54.2696 8.73419 55.7 9.59999C56.0132 10.1354 55.88 10.402 55.3 10.4C54.0334 9.56659 52.7666 8.73339 51.5 7.89999C51.2668 7.56659 51.2668 7.23319 51.5 6.89999Z" fill="#E5B82F"/>
<path fill-rule="evenodd" clip-rule="evenodd" d="M8.1 7.5C8.969 7.8014 9.769 8.2346 10.5 8.8C11.062 9.4094 10.9286 9.676 10.1 9.6C9.5344 9.1504 8.9344 8.7504 8.3 8.4C8.124 8.1288 8.0572 7.8288 8.1 7.5Z" fill="#DB8030"/>
<path fill-rule="evenodd" clip-rule="evenodd" d="M20.9 6.89999C22.3952 7.81479 23.862 8.78159 25.3 9.79999C25.1068 10.1356 24.8402 10.269 24.5 10.2C23.1666 9.26659 21.8334 8.33339 20.5 7.39999C20.6762 7.25839 20.8094 7.09159 20.9 6.89999Z" fill="#DC7C25"/>
<path fill-rule="evenodd" clip-rule="evenodd" d="M8.10002 8.89999C8.65482 9.14459 9.18822 9.44459 9.70002 9.79999C10.2158 10.1224 10.2158 10.4224 9.70002 10.7C9.27402 10.5066 8.87402 10.2732 8.50002 9.99999C8.16902 9.71119 8.03562 9.34439 8.10002 8.89999Z" fill="#D67E2C"/>
<path fill-rule="evenodd" clip-rule="evenodd" d="M35.5 8.29999C36.5894 8.94619 37.6562 9.64619 38.7 10.4C39.2232 10.7418 39.4232 11.1752 39.3 11.7C37.7626 10.9016 36.4292 9.86839 35.3 8.59999C35.4112 8.52339 35.4778 8.42339 35.5 8.29999Z" fill="#E8BD32"/>
<path fill-rule="evenodd" clip-rule="evenodd" d="M19.9 7.89999C21.548 8.65879 23.0814 9.62559 24.5 10.8C24.2352 11.3418 23.902 11.4084 23.5 11C22.1554 10.1958 20.8888 9.29579 19.7 8.29999C19.7726 8.16339 19.8392 8.02999 19.9 7.89999Z" fill="#DE7B25"/>
<path fill-rule="evenodd" clip-rule="evenodd" d="M50.9 8.30001C51.2616 8.29821 51.595 8.39821 51.9 8.60001C52.9992 9.38321 54.1326 10.1164 55.3 10.8C55.4976 11.6018 55.231 11.8018 54.5 11.4C53.3 10.6 52.1 9.80001 50.9 9.00001C50.6632 8.77101 50.6632 8.53761 50.9 8.30001Z" fill="#E7B52B"/>
<path fill-rule="evenodd" clip-rule="evenodd" d="M8.09998 10.5C8.58578 10.517 8.98578 10.717 9.29998 11.1C9.03378 11.8044 8.66718 11.871 8.19998 11.3C8.10198 11.0414 8.06858 10.7746 8.09998 10.5Z" fill="#D67E2C"/>
<path fill-rule="evenodd" clip-rule="evenodd" d="M19.1 8.9C19.3104 8.8702 19.5104 8.9034 19.7 9C20.7992 9.7832 21.9326 10.5164 23.1 11.2C23.9092 11.8492 23.7758 12.116 22.7 12C21.5 11.2 20.3 10.4 19.1 9.6C18.8632 9.371 18.8632 9.1376 19.1 8.9Z" fill="#DD7C27"/>
<path fill-rule="evenodd" clip-rule="evenodd" d="M50.5 9.29999C52.0376 10.2016 53.5044 11.2016 54.9 12.3C54.8 12.5 54.7 12.7 54.6 12.9C53.351 11.9918 52.051 11.1584 50.7 10.4C50.273 10.0888 50.2064 9.72219 50.5 9.29999Z" fill="#E6B52B"/>
<path fill-rule="evenodd" clip-rule="evenodd" d="M17.5 10.7C19.064 11.5156 20.5306 12.4822 21.9 13.6C21.8474 13.9892 21.6474 14.1224 21.3 14C20.0604 13.1274 18.7938 12.294 17.5 11.5C17.2748 11.2384 17.2748 10.9716 17.5 10.7Z" fill="#DB7B28"/>
<path opacity="0.169" fill-rule="evenodd" clip-rule="evenodd" d="M8.10003 11.9C8.46743 11.9278 8.53403 12.0612 8.30003 12.3C8.14043 12.2086 8.07383 12.0752 8.10003 11.9Z" fill="#AD8A74"/>
<path fill-rule="evenodd" clip-rule="evenodd" d="M36.3 10.5C37.5654 11.0606 38.7654 11.7606 39.9 12.6C40.1254 12.9506 40.3254 13.3174 40.5 13.7C40.3996 13.9042 40.2664 13.9376 40.1 13.8C39.1344 13.0838 38.1344 12.417 37.1 11.8C36.6532 11.4724 36.3866 11.039 36.3 10.5Z" fill="#E9BC33"/>
<path fill-rule="evenodd" clip-rule="evenodd" d="M18.3 9.70001C19.8896 10.5624 21.4228 11.529 22.9 12.6C22.575 13.164 22.175 13.2306 21.7 12.8C20.6008 12.0168 19.4674 11.2836 18.3 10.6C18.1174 10.3172 18.1174 10.0172 18.3 9.70001Z" fill="#DE7C24"/>
<path fill-rule="evenodd" clip-rule="evenodd" d="M49.9 10.3C51.2964 11.2282 52.6964 12.1614 54.1 13.1C54.2858 13.3378 54.3524 13.6044 54.3 13.9C53.9384 13.9018 53.605 13.8018 53.3 13.6C52.2008 12.8168 51.0674 12.0836 49.9 11.4C49.6496 11.0344 49.6496 10.6678 49.9 10.3Z" fill="#E7B729"/>
<path opacity="0.01" fill-rule="evenodd" clip-rule="evenodd" d="M26.5 12.5C26.7666 12.6334 26.7666 12.6334 26.5 12.5V12.5Z" fill="#FEFFFE"/>
<path opacity="0.475" fill-rule="evenodd" clip-rule="evenodd" d="M37.3 12.5C38.4564 13.155 39.5896 13.855 40.7 14.6C41.103 14.911 41.1696 15.2778 40.9 15.7C39.7184 15.0844 38.6184 14.351 37.6 13.5C37.3982 13.195 37.2982 12.8616 37.3 12.5Z" fill="#EAC031"/>
<path fill-rule="evenodd" clip-rule="evenodd" d="M35.1 21.1C33.52 17.9638 32.0534 14.7638 30.7 11.5C30.762 11.2524 30.862 11.2524 31 11.5C31.0764 12.2536 31.4098 12.8536 32 13.3C32.3684 14.4384 32.7684 15.5716 33.2 16.7C34.0684 18.0674 34.7018 19.534 35.1 21.1Z" fill="#E8BF39"/>
<path fill-rule="evenodd" clip-rule="evenodd" d="M16.7 11.7C18.155 12.428 19.555 13.2614 20.9 14.2C21.1682 14.5652 21.0682 14.7986 20.6 14.9C19.1532 14.0262 17.7198 13.1262 16.3 12.2C16.4762 12.0584 16.6094 11.8916 16.7 11.7Z" fill="#DE7C28"/>
<path fill-rule="evenodd" clip-rule="evenodd" d="M49.5 11.5C50.8264 12.4976 52.2264 13.3976 53.7 14.2C53.8976 15.0018 53.631 15.2018 52.9 14.8C51.6008 13.9324 50.3342 13.0324 49.1 12.1C49.2386 11.8964 49.3718 11.6964 49.5 11.5Z" fill="#E6B72A"/>
<path fill-rule="evenodd" clip-rule="evenodd" d="M15.1 13.5C16.5224 14.3122 17.9224 15.1788 19.3 16.1C19.4942 16.3924 19.4276 16.659 19.1 16.9C17.552 16.0512 16.0854 15.0846 14.7 14C14.8762 13.8584 15.0094 13.6916 15.1 13.5Z" fill="#DF7B26"/>
<path fill-rule="evenodd" clip-rule="evenodd" d="M15.9 12.5C17.2944 13.3978 18.6944 14.2978 20.1 15.2C20.3348 15.7658 20.1348 15.9658 19.5 15.8C18.1666 14.8666 16.8334 13.9334 15.5 13C15.6762 12.8584 15.8094 12.6916 15.9 12.5Z" fill="#DC7D27"/>
<path fill-rule="evenodd" clip-rule="evenodd" d="M48.9 12.7C50.432 13.5996 51.8986 14.5996 53.3 15.7C53.2 15.9 53.1 16.1 53 16.3C51.751 15.3918 50.451 14.5584 49.1 13.8C48.673 13.4888 48.6064 13.1222 48.9 12.7Z" fill="#E7B72F"/>
<path fill-rule="evenodd" clip-rule="evenodd" d="M48.3 13.9C49.7404 14.6682 51.1404 15.5348 52.5 16.5C52.6858 16.7378 52.7524 17.0044 52.7 17.3C52.3384 17.3018 52.005 17.2018 51.7 17C50.6008 16.2168 49.4674 15.4836 48.3 14.8C48.0544 14.502 48.0544 14.202 48.3 13.9Z" fill="#E6B62F"/>
<path fill-rule="evenodd" clip-rule="evenodd" d="M38.3 14.7C38.988 15.011 39.6546 15.3776 40.3 15.8C40.821 16.1862 40.821 16.5528 40.3 16.9C39.8334 16.6 39.3666 16.3 38.9 16C38.5098 15.6532 38.3098 15.2198 38.3 14.7Z" fill="#EABC2D"/>
<path fill-rule="evenodd" clip-rule="evenodd" d="M14.1 14.5C14.4616 14.4982 14.795 14.5982 15.1 14.8C16.0656 15.5162 17.0656 16.183 18.1 16.8C18.8666 17.1 18.9 17.4666 18.2 17.9C16.8 16.9666 15.4 16.0334 14 15.1C13.906 14.8846 13.9394 14.6846 14.1 14.5Z" fill="#DD7E26"/>
<path fill-rule="evenodd" clip-rule="evenodd" d="M47.9 14.9C49.2598 15.881 50.6598 16.8142 52.1 17.7C52.3078 18.4984 52.041 18.665 51.3 18.2C50.2008 17.4168 49.0674 16.6836 47.9 16C47.6496 15.6344 47.6496 15.2678 47.9 14.9Z" fill="#E6B626"/>
<path fill-rule="evenodd" clip-rule="evenodd" d="M39.1 16.7C40.12 16.8368 40.3868 17.3034 39.9 18.1C39.48 17.7272 39.2134 17.2606 39.1 16.7Z" fill="#EBBE34"/>
<path fill-rule="evenodd" clip-rule="evenodd" d="M14.5 16.3C14.512 16.1914 14.5786 16.1248 14.7 16.1C15.7504 16.7418 16.7836 17.4084 17.8 18.1C17.9224 18.4474 17.7892 18.6474 17.4 18.7C17.155 18.6276 16.9218 18.5276 16.7 18.4C15.9928 17.6592 15.2596 16.9592 14.5 16.3Z" fill="#DD8537"/>
<path fill-rule="evenodd" clip-rule="evenodd" d="M47.3 16.1C48.6944 16.9978 50.0944 17.8978 51.5 18.8C51.7698 19.127 51.7364 19.427 51.4 19.7C50.151 18.7918 48.851 17.9584 47.5 17.2C47.073 16.8888 47.0064 16.5222 47.3 16.1Z" fill="#E4B72E"/>
<path opacity="0.016" fill-rule="evenodd" clip-rule="evenodd" d="M8.09998 18.5C8.36658 18.6334 8.36658 18.6334 8.09998 18.5V18.5Z" fill="#7F807F"/>
<path opacity="0.697" fill-rule="evenodd" clip-rule="evenodd" d="M7.5 13.3C7.3006 9.00119 7.2338 4.66799 7.3 0.299994C5.7 0.299994 4.1 0.299994 2.5 0.299994C2.3692 9.94359 2.5024 19.5436 2.9 29.1C2.7206 29.3196 2.554 29.3196 2.4 29.1C2.3 19.3668 2.2666 9.63359 2.3 -0.100006C4.0334 -0.100006 5.7666 -0.100006 7.5 -0.100006C7.5 4.36659 7.5 8.83339 7.5 13.3Z" fill="#DE7B22"/>
<path fill-rule="evenodd" clip-rule="evenodd" d="M46.7 17.3C48.1806 18.141 49.6472 19.041 51.1 20C51.2738 20.293 51.1738 20.5262 50.8 20.7C49.4354 19.8698 48.0686 19.0364 46.7 18.2C46.5174 17.9172 46.5174 17.6172 46.7 17.3Z" fill="#E7B52B"/>
<path fill-rule="evenodd" clip-rule="evenodd" d="M46.3 18.5C47.5556 19.2622 48.8222 20.0288 50.1 20.8C50.9404 21.6532 50.8072 21.92 49.7 21.6C48.4404 20.8056 47.2404 19.939 46.1 19C46.1486 18.8196 46.2154 18.653 46.3 18.5Z" fill="#E6B62B"/>
<path fill-rule="evenodd" clip-rule="evenodd" d="M8.10002 19.3C9.66422 20.0952 11.0976 21.0952 12.4 22.3C12.5126 22.545 12.446 22.745 12.2 22.9C10.984 22.042 9.75062 21.2086 8.50002 20.4C8.16902 20.1112 8.03562 19.7444 8.10002 19.3Z" fill="#DD812D"/>
<path opacity="0.8" fill-rule="evenodd" clip-rule="evenodd" d="M17.1 19.5C18.4334 20.7 19.7 21.9666 20.9 23.3C19.6484 22.3166 18.4484 21.2498 17.3 20.1C17.1746 19.9166 17.1078 19.7166 17.1 19.5Z" fill="#D68744"/>
<path opacity="0.01" fill-rule="evenodd" clip-rule="evenodd" d="M0.299988 21.5C0.566588 21.6334 0.566588 21.6334 0.299988 21.5V21.5Z" fill="#FEFFFE"/>
<path opacity="0.01" fill-rule="evenodd" clip-rule="evenodd" d="M32.3 21.7C32.5666 21.8334 32.5666 21.8334 32.3 21.7V21.7Z" fill="#FEFFFE"/>
<path fill-rule="evenodd" clip-rule="evenodd" d="M45.7 19.5C47.0944 20.3978 48.4944 21.2978 49.9 22.2C50.076 22.4712 50.1428 22.7712 50.1 23.1C48.4128 22.3482 46.8796 21.3482 45.5 20.1C45.6254 19.9166 45.6922 19.7166 45.7 19.5Z" fill="#E4B72D"/>
<path fill-rule="evenodd" clip-rule="evenodd" d="M8.1 20.9C9.5462 21.6244 10.9462 22.4578 12.3 23.4C12.5494 23.6988 12.5494 23.9988 12.3 24.3C10.9932 23.427 9.66 22.5938 8.3 21.8C8.124 21.5288 8.0572 21.2288 8.1 20.9Z" fill="#DB7E2A"/>
<path opacity="0.01" fill-rule="evenodd" clip-rule="evenodd" d="M32.9 22.3C33.1666 22.4334 33.1666 22.4334 32.9 22.3V22.3Z" fill="#FEFFFE"/>
<path fill-rule="evenodd" clip-rule="evenodd" d="M44.7 21.9C46.0558 22.679 47.389 23.5122 48.7 24.4C49.0074 24.622 49.1406 24.922 49.1 25.3C48.7384 25.3018 48.405 25.2018 48.1 25C47.0008 24.2168 45.8674 23.4836 44.7 22.8C44.5174 22.5172 44.5174 22.2172 44.7 21.9Z" fill="#E5B529"/>
<path fill-rule="evenodd" clip-rule="evenodd" d="M45.3 20.7C46.6886 21.5958 48.0886 22.4958 49.5 23.4C49.7422 23.6226 49.7422 23.856 49.5 24.1C49.3996 24.3042 49.2664 24.3376 49.1 24.2C47.6926 23.2308 46.2926 22.2642 44.9 21.3C45.0386 21.0964 45.1718 20.8964 45.3 20.7Z" fill="#E6B734"/>
<path fill-rule="evenodd" clip-rule="evenodd" d="M8.10002 22.3C9.54602 23.0768 10.946 23.9434 12.3 24.9C12.4858 25.1378 12.5524 25.4044 12.5 25.7C11.0884 25.0934 9.75522 24.3268 8.50002 23.4C8.16902 23.1112 8.03562 22.7444 8.10002 22.3Z" fill="#DD7E2C"/>
<path fill-rule="evenodd" clip-rule="evenodd" d="M8.09997 23.7C9.40317 24.5676 10.7366 25.401 12.1 26.2C12.503 26.511 12.5696 26.8778 12.3 27.3C10.9666 26.4334 9.63337 25.5666 8.29997 24.7C8.10957 24.391 8.04297 24.0576 8.09997 23.7Z" fill="#DD7E2A"/>
<path fill-rule="evenodd" clip-rule="evenodd" d="M44.1 23.1C45.748 23.8588 47.2814 24.8256 48.7 26C48.482 26.594 48.1488 26.6606 47.7 26.2C46.5666 25.4334 45.4334 24.6666 44.3 23.9C44.1142 23.6622 44.0476 23.3956 44.1 23.1Z" fill="#E4B52B"/>
<path fill-rule="evenodd" clip-rule="evenodd" d="M43.7 24.3C45.1462 25.0244 46.5462 25.8578 47.9 26.8C48.2132 27.3354 48.08 27.602 47.5 27.6C46.1238 26.6798 44.7904 25.7132 43.5 24.7C43.5726 24.5634 43.6392 24.43 43.7 24.3Z" fill="#E3B62C"/>
<path fill-rule="evenodd" clip-rule="evenodd" d="M8.1 25.3C9.5192 26.0826 10.9192 26.916 12.3 27.8C12.476 28.0712 12.5428 28.3712 12.5 28.7C11.0538 27.9756 9.6538 27.1422 8.3 26.2C8.124 25.9288 8.0572 25.6288 8.1 25.3Z" fill="#DC7D27"/>
<path opacity="0.01" fill-rule="evenodd" clip-rule="evenodd" d="M51.3 26.3C51.5666 26.4334 51.5666 26.4334 51.3 26.3V26.3Z" fill="#FEFFFE"/>
<path fill-rule="evenodd" clip-rule="evenodd" d="M43.1 25.3C44.653 26.2166 46.1864 27.1832 47.7 28.2C47.5578 28.451 47.3912 28.6842 47.2 28.9C45.8876 27.9214 44.5208 27.0214 43.1 26.2C43.0068 25.9402 43.0068 25.6402 43.1 25.3Z" fill="#E5B62D"/>
<path opacity="0.01" fill-rule="evenodd" clip-rule="evenodd" d="M1.5 27.3C1.7666 27.4334 1.7666 27.4334 1.5 27.3V27.3Z" fill="#FEFFFE"/>
<path fill-rule="evenodd" clip-rule="evenodd" d="M42.7 26.5C44.0558 27.279 45.389 28.1122 46.7 29C47.2158 29.3224 47.2158 29.6224 46.7 29.9C45.152 29.0512 43.6854 28.0846 42.3 27C42.4762 26.8584 42.6094 26.6916 42.7 26.5Z" fill="#E5B831"/>
<path opacity="0.012" fill-rule="evenodd" clip-rule="evenodd" d="M17.9 26.9C18.7 27.3 19.3 27.9 19.7 28.7C19.0334 28.1666 18.4334 27.5666 17.9 26.9Z" fill="#F3AF48"/>
<path fill-rule="evenodd" clip-rule="evenodd" d="M8.09997 26.7C9.45577 27.479 10.789 28.3122 12.1 29.2C12.5696 29.5376 12.603 29.9044 12.2 30.3C10.9172 29.4086 9.61717 28.5418 8.29997 27.7C8.10957 27.391 8.04297 27.0576 8.09997 26.7Z" fill="#DF7E28"/>
<path fill-rule="evenodd" clip-rule="evenodd" d="M42.1 27.7C43.5462 28.4244 44.9462 29.2578 46.3 30.2C46.5698 30.527 46.5364 30.827 46.2 31.1C44.7068 30.1714 43.2734 29.1714 41.9 28.1C41.9726 27.9634 42.0392 27.83 42.1 27.7Z" fill="#E6B82F"/>
<path fill-rule="evenodd" clip-rule="evenodd" d="M7.29999 29.7C7.86399 29.6496 8.39719 29.7496 8.89999 30C9.96659 30.7334 11.0334 31.4666 12.1 32.2C11.4732 32.358 10.8732 32.2914 10.3 32C9.20039 31.3222 8.20039 30.5554 7.29999 29.7Z" fill="#DE7F2A"/>
<path fill-rule="evenodd" clip-rule="evenodd" d="M8.1 28.3C9.555 29.028 10.955 29.8614 12.3 30.8C12.476 31.0712 12.5428 31.3712 12.5 31.7C11.0538 30.9756 9.6538 30.1422 8.3 29.2C8.124 28.9288 8.0572 28.6288 8.1 28.3Z" fill="#DD7E2B"/>
<path opacity="0.01" fill-rule="evenodd" clip-rule="evenodd" d="M13.3 30.3C13.5666 30.4334 13.5666 30.4334 13.3 30.3V30.3Z" fill="#FEFFFE"/>
<path fill-rule="evenodd" clip-rule="evenodd" d="M7.89998 31.9C7.26998 31.2842 6.53658 30.8174 5.69998 30.5C5.69998 30.3666 5.63338 30.3 5.49998 30.3C5.40938 30.1084 5.27618 29.9416 5.09998 29.8C5.49998 29.6666 5.89998 29.6666 6.29998 29.8C7.49998 30.6 8.69998 31.4 9.89998 32.2C9.17938 32.3686 8.51278 32.2686 7.89998 31.9Z" fill="#DE7E28"/>
<path fill-rule="evenodd" clip-rule="evenodd" d="M21.3 29.9C21.9778 29.629 22.611 29.7622 23.2 30.3C23.3234 30.1102 23.2902 29.9436 23.1 29.8C23.5666 29.6666 24.0334 29.6666 24.5 29.8C25.6684 30.5508 26.8018 31.3508 27.9 32.2C27.4334 32.3334 26.9666 32.3334 26.5 32.2C25.729 31.6168 24.929 31.1502 24.1 30.8C24.7 31.2666 25.3 31.7334 25.9 32.2C25.5 32.3334 25.1 32.3334 24.7 32.2C23.5536 31.4288 22.4202 30.662 21.3 29.9Z" fill="#E78F38"/>
<path fill-rule="evenodd" clip-rule="evenodd" d="M41.1 29.9C42.5566 30.696 43.9566 31.596 45.3 32.6C44.8334 32.7334 44.3666 32.7334 43.9 32.6C42.7592 31.8308 41.626 31.064 40.5 30.3C40.7204 30.1648 40.9204 30.0316 41.1 29.9Z" fill="#E8B92D"/>
<path fill-rule="evenodd" clip-rule="evenodd" d="M41.7 28.7C43.0696 29.6342 44.4696 30.5342 45.9 31.4C46.1422 31.6226 46.1422 31.856 45.9 32.1C45.7996 32.3042 45.6664 32.3376 45.5 32.2C44.2604 31.3274 42.9938 30.494 41.7 29.7C41.4668 29.3666 41.4668 29.0332 41.7 28.7Z" fill="#E6B832"/>
<path fill-rule="evenodd" clip-rule="evenodd" d="M5.5 30.3C5.6334 30.3 5.7 30.3666 5.7 30.5C6.33 31.1158 7.0634 31.5826 7.9 31.9C7.9222 32.0234 7.9888 32.1234 8.1 32.2C7.7 32.3334 7.3 32.3334 6.9 32.2C5.7348 31.4658 4.6014 30.6992 3.5 29.9C3.6666 29.8334 3.8334 29.7666 4 29.7C4.4846 29.9252 4.9846 30.1252 5.5 30.3Z" fill="#DB832E"/>
<path fill-rule="evenodd" clip-rule="evenodd" d="M25.3 29.7C25.864 29.6496 26.3972 29.7496 26.9 30C27.9666 30.7334 29.0334 31.4666 30.1 32.2C29.4732 32.358 28.8732 32.2914 28.3 32C27.2004 31.3222 26.2004 30.5554 25.3 29.7Z" fill="#DE832D"/>
</g>
<defs>
<clipPath id="clip0_2_565">
<rect width="60" height="32" fill="white"/>
</clipPath>
</defs>
</svg>
